HIERARCHY
ROOT Hips
{
	OFFSET -0.001795 -0.223333 0.028219
	CHANNELS 6 Xposition Yposition Zposition Zrotation Yrotation Xrotation 
	JOINT LeftUpLeg
	{
		OFFSET 0.069520 -0.091406 -0.006815
		CHANNELS 3 Zrotation Yrotation Xrotation
		JOINT LeftLeg
		{
			OFFSET 0.034277 -0.375199 -0.004496
			CHANNELS 3 Zrotation Yrotation Xrotation
			JOINT LeftFoot
			{
				OFFSET -0.013596 -0.397961 -0.043693
				CHANNELS 3 Zrotation Yrotation Xrotation
				JOINT LeftToe
				{
					OFFSET 0.026358 -0.055791 0.119288
					CHANNELS 3 Zrotation Yrotation Xrotation
					End Site
					{
						OFFSET 0.000000 0.000000 0.000000
					}
				}
			}
		}
	}
	JOINT RightUpLeg
	{
		OFFSET -0.067670 -0.090522 -0.004320
		CHANNELS 3 Zrotation Yrotation Xrotation
		JOINT RightLeg
		{
			OFFSET -0.038290 -0.382569 -0.008850
			CHANNELS 3 Zrotation Yrotation Xrotation
			JOINT RightFoot
			{
				OFFSET 0.015774 -0.398415 -0.042312
				CHANNELS 3 Zrotation Yrotation Xrotation
				JOINT RightToe
				{
					OFFSET -0.025372 -0.048144 0.123348
					CHANNELS 3 Zrotation Yrotation Xrotation
					End Site
					{
						OFFSET 0.000000 0.000000 0.000000
					}
				}
			}
		}
	}
	JOINT Spine
	{
		OFFSET -0.002533 0.108963 -0.026696
		CHANNELS 3 Zrotation Yrotation Xrotation
		JOINT Spine1
		{
			OFFSET 0.005487 0.135180 0.001092
			CHANNELS 3 Zrotation Yrotation Xrotation
			JOINT Spine2
			{
				OFFSET 0.001457 0.052922 0.025425
				CHANNELS 3 Zrotation Yrotation Xrotation
				JOINT Neck
				{
					OFFSET -0.002778 0.213870 -0.042857
					CHANNELS 3 Zrotation Yrotation Xrotation
					JOINT Head
					{
						OFFSET 0.005152 0.064970 0.051349
						CHANNELS 3 Zrotation Yrotation Xrotation
						End Site
						{
							OFFSET 0.000000 0.000000 0.000000
						}
					}
				}
				JOINT LeftShoulder
				{
					OFFSET 0.078845 0.121749 -0.034090
					CHANNELS 3 Zrotation Yrotation Xrotation
					JOINT LeftArm
					{
						OFFSET 0.090977 0.030469 -0.008868
						CHANNELS 3 Zrotation Yrotation Xrotation
						JOINT LeftForeArm
						{
							OFFSET 0.259612 -0.012772 -0.027456
							CHANNELS 3 Zrotation Yrotation Xrotation
							JOINT LeftHand
							{
								OFFSET 0.249234 0.008986 -0.001171
								CHANNELS 3 Zrotation Yrotation Xrotation
								End Site
								{
									OFFSET 0.000000 0.000000 0.000000
								}
							}
						}
					}
				}
				JOINT RightShoulder
				{
					OFFSET -0.081759 0.118833 -0.038615
					CHANNELS 3 Zrotation Yrotation Xrotation
					JOINT RightArm
					{
						OFFSET -0.096012 0.032551 -0.009143
						CHANNELS 3 Zrotation Yrotation Xrotation
						JOINT RightForeArm
						{
							OFFSET -0.253742 -0.013329 -0.021401
							CHANNELS 3 Zrotation Yrotation Xrotation
							JOINT RightHand
							{
								OFFSET -0.255298 0.007772 -0.005559
								CHANNELS 3 Zrotation Yrotation Xrotation
								End Site
								{
									OFFSET 0.000000 0.000000 0.000000
								}
							}
						}
					}
				}
			}
		}
	}
}
MOTION
Frames: 14
Frame Time: 0.050000
0.045183 0.866774 0.072410 -0.490391 -4.865233 -7.354467 20.944425 -1.102952 20.066758 -2.628638 1.906969 -54.941590 35.356728 23.159690 119.705690 0.000000 0.000000 0.000000 -25.702757 3.031236 15.252053 1.256057 -0.332507 -49.495581 -45.767606 -21.364684 126.745853 0.000000 0.000000 0.000000 4.903983 1.985289 -18.887845 2.555819 2.667650 -77.794484 1.247306 4.789169 116.618989 6.770823 1.997096 -109.401133 0.000000 0.000000 0.000000 7.334236 0.044184 -5.145024 -3.893132 -11.324686 -3.183922 4.999166 38.040266 -1.201976 0.000000 0.000000 0.000000 8.040145 -1.458567 0.902621 10.171326 8.637552 -6.270361 -10.294674 -24.669433 1.643389 0.000000 0.000000 0.000000 
0.043183 0.947758 0.053378 -2.249801 -7.947939 -7.729442 20.337760 -0.180766 13.253694 1.094602 2.602032 -40.223411 27.880023 23.980806 118.551306 0.000000 0.000000 0.000000 -19.886268 1.219596 4.644205 3.510589 0.238217 -31.313792 -37.587581 -21.990184 116.716988 0.000000 0.000000 0.000000 5.344421 1.566615 -13.488969 24.802754 6.388741 -72.210221 -9.393244 27.604133 102.982335 20.320257 1.036163 -103.167866 0.000000 0.000000 0.000000 14.348187 1.137302 -3.934674 -4.945458 -5.311039 -2.615939 4.031862 29.971126 -1.384536 0.000000 0.000000 0.000000 10.937462 3.194720 3.913093 6.736048 6.908553 -3.896809 -7.496912 -24.258438 1.255287 0.000000 0.000000 0.000000 
0.040602 1.024724 0.036570 -1.602071 -9.543028 -8.699536 18.812592 0.401827 7.311013 1.282434 1.592377 -27.016138 12.064793 23.267073 108.471198 0.000000 0.000000 0.000000 -14.694149 0.452521 -3.797721 1.674437 -0.300059 -13.968126 -27.551669 -22.479646 103.956610 0.000000 0.000000 0.000000 6.697152 1.548870 -11.342580 14.728022 3.217967 -64.464173 -5.010185 19.469274 89.725380 24.523895 -0.485719 -95.279092 0.000000 0.000000 0.000000 15.114914 -4.521452 -2.607026 -4.442775 -3.438110 -2.034638 1.324473 29.058927 -1.547292 0.000000 0.000000 0.000000 7.049731 4.246294 2.755769 5.503793 5.099875 -2.669589 -5.742377 -25.399556 0.570264 0.000000 0.000000 0.000000 
0.039434 1.068146 0.027646 -0.138313 -9.777506 -8.425001 14.778196 0.464320 6.024558 0.052892 1.182461 -22.768488 6.191195 21.772013 99.839202 0.000000 0.000000 0.000000 -13.476185 0.440386 -4.626267 1.136683 -0.291803 -9.300171 -18.970086 -21.485903 96.251433 0.000000 0.000000 0.000000 7.150141 1.760546 -12.335823 7.358685 0.933390 -59.177477 -2.185685 16.647199 82.987818 23.280727 -1.597499 -91.598373 0.000000 0.000000 0.000000 15.301722 -9.323297 -1.535112 -1.974799 -1.040466 -0.999161 -0.592945 28.823528 -2.081713 0.000000 0.000000 0.000000 7.525015 5.166265 3.129759 3.741690 8.143251 -2.085135 -6.296615 -27.838041 0.594970 0.000000 0.000000 0.000000 
0.039834 1.081199 0.025916 -0.907816 -5.931173 -9.835506 13.828908 0.239913 7.681585 -1.115328 0.913458 -22.787599 1.882880 19.374163 96.711544 0.000000 0.000000 0.000000 -12.517446 0.285885 0.042886 -0.809726 -0.307119 -9.360695 -11.523319 -20.081218 93.505768 0.000000 0.000000 0.000000 4.104811 1.114743 -11.211506 26.065874 3.095938 -66.668373 -11.750095 33.947879 92.744775 34.058581 -1.726087 -98.713323 0.000000 0.000000 0.000000 23.821492 -3.037823 -2.194885 -3.953487 -7.743270 -1.982346 -4.341639 26.557517 -3.481068 0.000000 0.000000 0.000000 12.112693 2.872333 4.005462 -0.052385 10.679047 -1.607956 2.897362 -27.928851 -1.793081 0.000000 0.000000 0.000000 
0.040441 1.060072 0.028534 -0.380909 -8.491459 -11.572627 12.843374 0.502543 14.320871 -3.193178 1.186620 -30.166459 8.276334 21.812715 100.962522 0.000000 0.000000 0.000000 -14.043489 0.475175 1.734534 2.704580 -0.310046 -11.502328 -18.050148 -21.576205 95.484100 0.000000 0.000000 0.000000 5.935328 1.205604 -9.098654 3.574671 2.450652 -73.017481 0.070476 10.196115 99.140676 19.453209 0.870889 -102.543216 0.000000 0.000000 0.000000 12.111808 -6.526094 -3.462290 0.363996 -6.463041 -0.769731 -4.302491 27.462412 -2.943357 0.000000 0.000000 0.000000 2.370119 2.240568 0.466703 3.906020 12.091185 -2.625580 4.003077 -24.735491 -2.234582 0.000000 0.000000 0.000000 
0.039251 0.991387 0.038646 -1.181611 -7.816336 -11.318065 15.382105 0.160673 19.593315 -8.209644 0.413845 -41.503251 29.923574 24.676953 112.746219 0.000000 0.000000 0.000000 -15.031600 0.743598 6.365547 6.272193 0.317855 -24.185867 -34.599799 -25.173066 103.369267 0.000000 0.000000 0.000000 6.038860 1.396203 -10.955155 5.301084 1.250586 -55.123923 -5.173683 12.319560 77.730114 24.037341 1.437518 -100.174895 0.000000 0.000000 0.000000 10.822007 -11.894574 0.252477 1.181630 -1.194465 0.100018 -4.694213 25.273584 -2.579705 0.000000 0.000000 0.000000 11.309340 6.373511 4.391144 0.352099 9.761952 -1.231887 4.090471 -24.469550 -2.223055 0.000000 0.000000 0.000000 
0.036481 0.901793 0.055330 -0.496858 -9.069995 -11.728005 16.157976 0.241983 29.182120 -9.245177 0.328520 -55.195992 48.412418 23.632001 124.927833 0.000000 0.000000 0.000000 -17.888678 1.901085 14.412439 11.497034 2.987039 -39.344715 -60.519843 -28.794316 111.002974 0.000000 0.000000 0.000000 9.042315 2.865977 -17.020093 -2.931916 0.247494 -49.103469 1.362369 8.733213 81.418730 27.924782 2.122955 -106.013451 0.000000 0.000000 0.000000 4.555503 -11.900682 1.656894 4.065256 -1.718784 0.883030 -8.454166 19.066620 -2.648283 0.000000 0.000000 0.000000 17.751831 3.355047 4.327256 -5.545655 11.316754 -0.069906 4.645264 -22.335463 -2.475601 0.000000 0.000000 0.000000 
0.034486 0.827778 0.067537 -1.758311 -7.949501 -8.915182 16.977124 -0.245481 33.127111 -8.495481 0.303383 -65.102623 75.698682 22.378186 128.040574 0.000000 0.000000 0.000000 -20.692564 3.068196 19.996086 13.642810 5.428676 -53.480958 -87.642312 -30.928053 118.847513 0.000000 0.000000 0.000000 9.098780 4.716983 -27.907762 -0.178360 -1.720168 -38.868536 -3.619329 10.620413 81.899235 33.759659 4.184648 -112.707870 0.000000 0.000000 0.000000 -0.550625 -7.712433 1.632877 4.698317 -4.352348 0.571918 -8.222330 24.245318 -3.696816 0.000000 0.000000 0.000000 24.183090 5.684205 6.350244 -8.102627 12.769918 0.236724 2.225845 -23.554474 -2.243212 0.000000 0.000000 0.000000 
0.034438 0.791573 0.073286 -1.920802 -6.542447 -8.555439 16.157977 -0.362069 36.159610 -8.165471 -0.049021 -70.401187 91.302693 28.286281 120.044103 0.000000 0.000000 0.000000 -22.016042 3.714387 23.983731 12.999823 5.880791 -61.719463 -99.460195 -31.045230 122.489126 0.000000 0.000000 0.000000 9.162283 5.258116 -31.740585 -28.211055 7.511144 -25.029143 20.241994 -17.512583 63.986446 -1.555365 0.408679 -112.909447 0.000000 0.000000 0.000000 -19.701028 -11.672333 9.671889 8.449856 -1.908400 2.090862 -7.448408 27.864833 -4.174170 0.000000 0.000000 0.000000 13.677958 5.643248 2.161348 -2.179631 9.903160 0.096980 -1.611694 -23.314601 -1.511783 0.000000 0.000000 0.000000 
0.035087 0.783620 0.076171 -2.470634 -8.189822 -7.348692 14.520638 0.496457 36.967270 -6.836294 1.352421 -71.412243 94.768630 36.244313 110.981506 0.000000 0.000000 0.000000 -21.821606 3.857927 22.886856 12.925855 6.655538 -63.299601 -105.631876 -29.990302 124.499536 0.000000 0.000000 0.000000 11.798252 7.229596 -35.129870 -13.584847 43.741256 52.340814 40.674006 -8.448157 -42.532174 -12.872673 1.046396 -48.973956 0.000000 0.000000 0.000000 -17.368888 -21.270031 14.340677 -7.971730 7.078559 -0.601754 2.965467 28.363456 -0.698617 0.000000 0.000000 0.000000 -7.456727 -3.393477 4.204428 15.387190 3.853145 -0.065349 -6.104022 -16.225116 -0.018725 0.000000 0.000000 0.000000 
0.035171 0.789520 0.077059 -3.038880 -9.993583 -4.518609 12.665323 1.394722 36.641962 -5.494900 2.964338 -71.738353 83.751189 37.312243 105.846189 0.000000 0.000000 0.000000 -21.300093 3.691450 19.887249 12.302082 7.036971 -63.344618 -107.106497 -28.728821 125.498548 0.000000 0.000000 0.000000 14.281683 10.213589 -40.744516 11.050428 26.619373 107.903734 23.223478 -6.729766 -82.713082 -6.751019 3.505131 -49.191217 0.000000 0.000000 0.000000 8.261519 -13.778117 8.295667 -26.704638 -0.192743 1.469566 2.969063 28.917488 -0.601414 0.000000 0.000000 0.000000 -16.237670 -6.225000 5.603063 25.047039 7.278687 2.690758 -2.650777 -17.691596 -0.599440 0.000000 0.000000 0.000000 
0.034323 0.805526 0.076149 -2.921708 -8.655829 -3.737439 11.161568 1.459801 35.327030 -3.910866 3.458267 -71.085648 78.802434 32.783699 111.107460 0.000000 0.000000 0.000000 -19.003036 2.924027 19.909188 11.446010 5.874527 -61.669016 -110.788289 -31.950469 123.336609 0.000000 0.000000 0.000000 14.962439 10.457890 -42.172015 -10.329765 33.221504 65.407778 26.350398 -5.422629 -48.305613 -5.351866 3.135139 -42.601311 0.000000 0.000000 0.000000 -3.367392 -16.146000 7.793271 -15.964969 8.292844 -0.827591 7.055742 27.352784 0.953574 0.000000 0.000000 0.000000 -6.883613 -2.897903 2.211433 17.398243 -1.667228 -0.027830 -5.040043 -16.079104 0.031991 0.000000 0.000000 0.000000 
0.033055 0.822959 0.070066 -2.623657 -7.336389 -1.673139 10.393627 1.234376 32.545051 -4.669889 2.760306 -71.062045 77.676022 27.486426 119.299475 0.000000 0.000000 0.000000 -18.583024 2.434807 17.417780 10.181398 4.620097 -60.181222 -106.332733 -28.853959 125.600270 0.000000 0.000000 0.000000 15.664303 9.380029 -39.150062 -85.967974 38.241682 -19.506618 84.897591 -15.919329 -3.694799 -24.864888 7.246160 -70.694039 0.000000 0.000000 0.000000 -11.496954 -10.732925 10.817121 -15.835454 -2.031349 -3.554969 3.147948 34.971647 2.277611 0.000000 0.000000 0.000000 -13.576107 -12.010643 3.712198 16.414032 6.254565 -0.934409 0.948732 -19.112530 -1.517948 0.000000 0.000000 0.000000 
